<svg version="1.1" xmlns="http://www.w3.org/2000/svg" xmlns:xlink="http://www.w3.org/1999/xlink" viewBox="0 0 226 226"><defs><linearGradient x1="113" y1="203.04688" x2="113" y2="22.95312" gradientUnits="userSpaceOnUse" id="color-1"><stop offset="0" stop-color="#25b3ff"></stop><stop offset="1" stop-color="#1354ff"></stop></linearGradient><linearGradient x1="113" y1="21.1875" x2="113" y2="204.8125" gradientUnits="userSpaceOnUse" id="color-2"><stop offset="0" stop-color="#0076b4"></stop><stop offset="1" stop-color="#002da2"></stop></linearGradient><linearGradient x1="113" y1="35.3125" x2="113" y2="190.6875" gradientUnits="userSpaceOnUse" id="color-3"><stop offset="0" stop-color="#0076b4"></stop><stop offset="1" stop-color="#002da2"></stop></linearGradient><linearGradient x1="113" y1="161.12388" x2="113" y2="64.87612" gradientUnits="userSpaceOnUse" id="color-4"><stop offset="0" stop-color="#25b3ff"></stop><stop offset="1" stop-color="#1354ff"></stop></linearGradient></defs><g transform=""><g fill="none" fill-rule="nonzero" stroke="none" stroke-width="1" stroke-linecap="butt" stroke-linejoin="miter" stroke-miterlimit="10" stroke-dasharray="" stroke-dashoffset="0" font-family="none" font-weight="none" font-size="none" text-anchor="none" style="mix-blend-mode: normal"><path d="M0,226v-226h226v226z" fill="none"></path><g id="original-icon"><path d="M113,203.04688c-49.65291,0 -90.04688,-40.39397 -90.04688,-90.04687c0,-49.65291 40.39397,-90.04688 90.04688,-90.04688c49.65291,0 90.04688,40.39397 90.04688,90.04688c0,49.65291 -40.39397,90.04688 -90.04687,90.04688zM113,40.60937c-39.91725,0 -72.39062,32.47337 -72.39062,72.39063c0,39.91725 32.47337,72.39063 72.39063,72.39063c39.91725,0 72.39063,-32.47337 72.39063,-72.39062c0,-39.91725 -32.47337,-72.39062 -72.39062,-72.39062z" fill="url(#color-1)"></path><path d="M113,204.8125c-50.62753,0 -91.8125,-41.1885 -91.8125,-91.8125c0,-50.624 41.18497,-91.8125 91.8125,-91.8125c50.62753,0 91.8125,41.1885 91.8125,91.8125c0,50.624 -41.18497,91.8125 -91.8125,91.8125zM113,28.25c-46.72903,0 -84.75,38.02097 -84.75,84.75c0,46.72903 38.02097,84.75 84.75,84.75c46.72903,0 84.75,-38.02097 84.75,-84.75c0,-46.72903 -38.02097,-84.75 -84.75,-84.75z" fill="url(#color-2)"></path><path d="M113,190.6875c-42.83759,0 -77.6875,-34.84991 -77.6875,-77.6875c0,-42.83759 34.84991,-77.6875 77.6875,-77.6875c42.83759,0 77.6875,34.84991 77.6875,77.6875c0,42.83759 -34.84991,77.6875 -77.6875,77.6875zM113,42.375c-38.94262,0 -70.625,31.68238 -70.625,70.625c0,38.94262 31.68238,70.625 70.625,70.625c38.94262,0 70.625,-31.68238 70.625,-70.625c0,-38.94262 -31.68238,-70.625 -70.625,-70.625z" fill="url(#color-3)"></path><path d="M150.403,94.78934l-15.80587,2.09756c0,0 2.39066,-20.14225 -23.92422,-20.14225c-13.38697,0 -18.46844,8.05478 -18.46844,14.13559c0,7.42622 6.84709,10.93275 28.23234,15.53397c21.38172,4.60475 31.79538,12.58537 31.79538,26.68213c0,14.09675 -10.31125,28.024 -38.10925,28.024c-25.10366,0 -36.26594,-11.0175 -40.35513,-31.68944c8.73984,-1.22181 16.45562,-2.34828 16.45562,-2.34828c0,0 -2.77556,22.77656 23.80063,22.77656c12.08747,0 22.96725,-3.51359 22.96725,-14.97603c0,-11.46244 -11.06694,-13.71891 -24.64106,-16.16253c-13.57413,-2.44362 -34.86403,-7.23553 -34.86403,-27.62497c0,-18.35897 19.70791,-26.216 33.00306,-26.216c30.76072,-0.00353 39.91372,16.15194 39.91372,29.90969z" fill="url(#color-4)"></path></g></g></g></svg>