<svg version="1.1" xmlns="http://www.w3.org/2000/svg" xmlns:xlink="http://www.w3.org/1999/xlink" viewBox="0 0 226 226"><g fill="none" fill-rule="nonzero" stroke="none" stroke-width="1" stroke-linecap="butt" stroke-linejoin="miter" stroke-miterlimit="10" stroke-dasharray="" stroke-dashoffset="0" font-family="none" font-weight="none" font-size="none" text-anchor="none" style="mix-blend-mode: normal"><path d="M0,226v-226h226v226z" fill="none"></path><g><path d="M178.91667,56.5h-75.33333l-18.83333,-18.83333h-47.08333c-10.35833,0 -18.83333,8.475 -18.83333,18.83333v113c0,10.35833 8.475,18.83333 18.83333,18.83333h145.95833c8.00417,0 14.125,-6.12083 14.125,-14.125v-98.875c0,-10.35833 -8.475,-18.83333 -18.83333,-18.83333z" fill="#e0dc00"></path><path d="M198.69167,84.75h-126.65417c-8.94583,0 -16.95,6.59167 -18.3625,15.5375l-16.00833,88.04583h149.25417c8.94583,0 16.95,-6.59167 18.3625,-15.5375l11.77083,-65.91667c2.35417,-11.3 -6.59167,-22.12917 -18.3625,-22.12917z" fill="#f4ff65"></path></g></g></svg>